/* XPM */
static char *c35fc5b9adac44e8a5166003f83164761xahC7CJi7cxOSNR[] = {
/* columns rows colors chars-per-pixel */
"50 50 86 1 ",
"  c #010001",
". c #010203",
"X c #020204",
"o c #030306",
"O c #030406",
"+ c #040507",
"@ c #050508",
"# c #06060A",
"$ c #06070B",
"% c #0E0F13",
"& c #0F0F15",
"* c #101116",
"= c #12131A",
"- c #13141A",
"; c #14141A",
": c #17171F",
"> c #17181F",
", c #18191F",
"< c #171820",
"1 c #181A22",
"2 c #191B22",
"3 c #1A1A23",
"4 c #1A1B24",
"5 c #1A1C24",
"6 c #1B1C24",
"7 c #1B1C25",
"8 c #1B1D26",
"9 c #1C1E27",
"0 c #1C1E28",
"q c #1D1F29",
"w c #1E1F29",
"e c #1D2029",
"r c #1F202B",
"t c #1F222D",
"y c #20212B",
"u c #20212C",
"i c #21232D",
"p c #20232E",
"a c #22242F",
"s c #23242F",
"d c #232530",
"f c #232631",
"g c #242531",
"h c #242631",
"j c #252732",
"k c #252734",
"l c #262734",
"z c #252834",
"x c #262834",
"c c #262935",
"v c #272935",
"b c #272A36",
"n c #282A37",
"m c #282B38",
"M c #282B39",
"N c #292C39",
"B c #2B2E3D",
"V c #2C2F3D",
"C c #2D303E",
"Z c #2D303F",
"A c #2E3140",
"S c #2F3241",
"D c #303342",
"F c #323546",
"G c #333748",
"H c #343849",
"J c #34394A",
"K c #35394B",
"L c #353A4B",
"P c #353A4C",
"I c #363A4C",
"U c #373B4E",
"Y c #373C4F",
"T c #383C4F",
"R c #373C50",
"E c #383C50",
"W c #383D50",
"Q c #3A3E53",
"! c #3B3F54",
"~ c #3B4054",
"^ c #3C4156",
"/ c #3E4358",
"( c #3E4359",
") c #3F445A",
"_ c #3F455A",
"` c #40455B",
/* pixels */
"WWWWWWWWWWWPWWYR~P~P~YYYYYYYYY~YRWWRRRY~PY~PY~Y~L~",
"WWWWWWWWWWW^P^Y~Y~~~RRY~Y~~Y~YY~RRW~Y~R~~YP~YYYYYY",
"WWWWWWWPKPKKPKKPPPGGGYPPYLYYPGGLPPPPKPPPYGK~Y~YYY~",
"WWWWWWW^mfnnnnvvzzvvmMMvMMjMMmvmvvvvvvvvvv~~L~Y~~L",
"WWWTWWW(^:;99600eee6tvtefjeamtee009969071R_YRRYYYY",
"WWWYWWWP^^99hjjhffffMAZvAZvmZmathhjfhkhk~_YRY~~Y~Y",
"WWKKWWWWT(^00vhkfzffMSCvAAvZSCfmkkhhkkkW_YRRYYLFL~",
"WWPAPWWWWP(^e6kvvfvfMSZvAAvCSNffkhvvhh!(PRRR~GF~YY",
"WWTNNPWWWWW(^99hvhvjCSBnAAvZAZhjkhkjj!(PWWTWHnT`YY",
"WWPv0VPWWWWP^^e9kkfjvNnvMZvNNMfjkvkhW`RWWWWKV3H^YY",
"WWPN0kCKWWWWY(^90kvhvfjjfjjjhkkhnhh!`PWWWWKNu3T`LY",
"WWPvejhBPWWWWP(~3<ueu0ueeteeuueu0eW(EEWWWPVeysT^Y~",
"WWYvehfkAPWWWWY(R<;96606990677077T`EWWWWPVeehgT^YY",
"R~PvehvjkBPWWWRR_!=&3:<<><<><3;:!`PWWWWKVeuhvyT^YY",
"RYKvejjhhkVPWWWWP(W  O         T`PWWWWKVeejvksE^YT",
"W~YvejjvvhkBPWWWWP`W  O    O  T`PWWWWPC0uhkhvsT!YY",
"WWKn0vhvkfkdNKWWWWY`W  +  o  R_PWWWWPN70kkhvksT`LY",
"WWKn0hkhhkke9BPRWWWP`W  +o  Y_YWWWWPN37vkhkhvsT!~Y",
"WWKn0jhkd0e6<>MKWWWWP`W    R_YRWWWPN-=6e0avhksP^L~",
"T!Tmejhn00je6>ONPWWWWP`W  Y_PWWWWPN+-9eje0kvkgT(LL",
"TTKn0vhkfdvw63 OmPWWWWP`WP`YTWWWTN$ :9yktuvfkfW`~L",
"W!Yvejkn0tnw0<  #mPWWWWP(_PWWWWPN$  :9rnuevjvuP^L~",
"Y~Kv0hkkwpkw0<   +NPWWWWRPWWWWPN#   ,9ekf0kjhuR!LY",
"YYYv0nhmwpvt6<    +mPWWWWWWWWPN#    :9ykufnfvfW`Y~",
"YRKv>tta6pvw7<      v~WWWWWWWmo     >60nf6ata6K/L~",
"Y~Yv1tat6tkt0<   O  P_YWWWWWWW  O   >0ykt6ttt6T/LY",
"Y~Kvevvvufn07<  O  W`RWWWWWWP_W  O  <9evttvvmfT/Y~",
"Y~Kvevffuukt0< +  W`PWWWWWWWWP`W  + <9ykfejjjtT/YT",
"WWRvejjv0uve6:O  R_PWWWWPPWWWWP`W  o:9ekttkhssT/LY",
"WWPv0jfvtavt03  R_PWWWWPMNPRWWWP`W  30uvttvknaT/YY",
"W~Pv0vvv00f06- R_YWWWWKN+ovPWWWWP`W %79heukhhaT^Y~",
"RRPv0hfffet67-R_PWWWRPN#  #NPWWWWP`W**0utunhhaT_LY",
"WRPvehjhvkm07!`PWWWWPm$ o  +mPWWWWP_!<7hnhhknaW^Y~",
"W~Rvejjvhkv0W`PWWWWPm#      +nPWWWWP(W39hhkhkuW^LY",
"YYPv0fjjvhfW`EWWWWPm#      o +nKWWWWP`!00hknhhT`Y~",
"Y~Kmevjvvf!(PWWWEPmo           nPWWWWP(!00khvuT^LY",
"~YLmeajjh!(RWWWWPV<=3:<<>>><>3:3VPWWWWP(!99hkaT`L~",
"Y~Lmejfj!(PWWWWPm<:79790069969999NPTWWWW`^99nuP~L~",
"Y~Kvehh~(WWWWWPV77uurrureyey0teu0aVKWWWWP(!9uuT`YY",
"Y~Gmea~_PEWWWHV0ehhhhshhjjjjjjhkkhhCPWWWWP`^0,T^L~",
"WWPv6~`TWWWWPV0tvhkjNmmkNNvvBNjvkkhkVKWTWWT(^,K^YY",
"WWKvW_YWWWEPB00khkkhVDVvAAvCDNjhkhvhhCKTWWWT_TT^LY",
"WWK^_PWWWWPV0ukkvhjjmAVmAAvBCNhvhvhvjjCKWWWWT^`^Y~",
"WW__TWWWWPB0ekkhhvjjVDBkAAvCDNhhkhkhvjhCKWWWWT^^LY",
"WW~RWWWWKBeumvkkvkvjVDVmDCMZCCfavfnfvkvnCPWWWWTWL~",
"WWRWWWWKn39uuasyuguumVmhCZjvCNaauftffuuuuNKWWWWW~Y",
"WWWWWWKFTKPTTKTTTPEPWWWW~WRW~TYYTPPPPTTTYWFKWWWWYY",
"WWWWTTKW^^`^^`^^^^(^(^~_^^~_~~/_^^`(_^^^^(WKWWWW~L",
"WWWWWWWWRYYYYYYYYYKTYYYKLLYYYLLLTTKTTKYKKYYYY~L~YY",
"WWWWWWWWWWWWTTWT~TYY~K~~~L~L~~~LTT!TT~Y~~TY~YY~Y~Y"
};