/* XPM */
static char *_67e6b4c8c12453ba272b279bbd0fa60VJv8JzOrzurbolUG[] = {
/* columns rows colors chars-per-pixel */
"50 50 147 2 ",
"   c #010000",
".  c #0C0201",
"X  c #0E0906",
"o  c #0D0C0B",
"O  c #140200",
"+  c #1B0500",
"@  c #140A04",
"#  c #1B0D03",
"$  c #140E0A",
"%  c #190F09",
"&  c #1F1006",
"*  c #1C130D",
"=  c #171412",
"-  c #1E1611",
";  c #1E1915",
":  c #230000",
">  c #200900",
",  c #241303",
"<  c #2A1401",
"1  c #2D1906",
"2  c #22150D",
"3  c #281709",
"4  c #26180F",
"5  c #2C1A0D",
"6  c #311E0E",
"7  c #211711",
"8  c #241A13",
"9  c #2A1D15",
"0  c #251E18",
"q  c #281F18",
"w  c #301F14",
"e  c #2D2017",
"r  c #2D221A",
"t  c #322116",
"y  c #382415",
"u  c #34251B",
"i  c #38271B",
"p  c #36281E",
"a  c #3A291E",
"s  c #2E2720",
"d  c #352A22",
"f  c #3D2D21",
"g  c #382F28",
"h  c #3E3126",
"j  c #3D3229",
"k  c #3E3630",
"l  c #412D1C",
"z  c #402F22",
"x  c #433225",
"c  c #44352A",
"v  c #483729",
"b  c #46392E",
"n  c #4B3A2D",
"m  c #4E3C2F",
"M  c #523E2E",
"N  c #403831",
"B  c #453C33",
"V  c #493C32",
"C  c #4C3C30",
"Z  c #4F3D30",
"A  c #4D3F32",
"S  c #503E30",
"D  c #503F32",
"F  c #4E4036",
"G  c #4B423A",
"H  c #4D4138",
"J  c #534031",
"K  c #514033",
"L  c #574230",
"P  c #514134",
"I  c #534234",
"U  c #544335",
"Y  c #584536",
"T  c #594636",
"R  c #5C4734",
"E  c #554639",
"W  c #594739",
"Q  c #53483D",
"!  c #594839",
"~  c #5A493A",
"^  c #5C4A3C",
"/  c #5E4B3C",
"(  c #5E4C3D",
")  c #5F4C3D",
"_  c #5D4D3E",
"`  c #624A34",
"'  c #604D3D",
"]  c #614E3E",
"[  c #624F3F",
"{  c #504942",
"}  c #544B43",
"|  c #5F4F40",
" . c #5C4E43",
".. c #5C5147",
"X. c #5D5248",
"o. c #565654",
"O. c #604F41",
"+. c #624F40",
"@. c #625041",
"#. c #645242",
"$. c #655242",
"%. c #665343",
"&. c #605246",
"*. c #695645",
"=. c #6A5646",
"-. c #6B5847",
";. c #675749",
":. c #65594E",
">. c #65594F",
",. c #6C594A",
"<. c #6C5A4A",
"1. c #6B5C4F",
"2. c #715D4B",
"3. c #745F4D",
"4. c #665A50",
"5. c #6B5E52",
"6. c #75614F",
"7. c #6E6155",
"8. c #736253",
"9. c #756354",
"0. c #796656",
"q. c #75665A",
"w. c #786759",
"e. c #75695E",
"r. c #7C6A5B",
"t. c #796B5F",
"y. c #7E6C5D",
"u. c #746B62",
"i. c #7B6E62",
"p. c #7E7164",
"a. c #7E7368",
"s. c #826E5E",
"d. c #85715F",
"f. c #806F60",
"g. c #847464",
"h. c #877768",
"j. c #8A796A",
"k. c #8C8175",
"l. c #8C8278",
"z. c #928274",
"x. c #978676",
"c. c #9C8C7C",
"v. c #A18F7E",
"b. c #A2907F",
"n. c #978F86",
"m. c #988D82",
"M. c #BEB5AC",
/* pixels */
"g h d Q p >.N 5 v x x v F { f k { u 9 r 8 2 u u 8 * k g r - - r a d * @ 0 h e d a r - ; p - 7 0 h - ",
"/ 2.c u.L l.v.n c ' h 6.y.x.' 9.m.U 9 r n a Y V i y 1.X.L x x v m V v 0 m #.c ) ;.v p p F a u v #.d ",
"w m d O @.R s.<.c ' 0 Z a 6 i a x / f u p a 9 . * u 5 3 x 9 u u 9   &.d x p i u x e u 0 p u - a & p ",
"a f 8 x n n z v d f @ p n f z z i m ' * f p e e e 8 a 0 p u r u x 9 #.r K ' i i 9 u a - p 9 9 9 8 p ",
"t ) N P z a x W 2 i r ~ f x a d f x F 0 c i t e 8 e u - * u p p v x R r ~ K i a 8 u p @ e 9 * a x e ",
"f M d w z p a a 9 x * e v n a a z f n r p i 8 e t r a * * e 9 p p a Y s S i x a a a r $ p u 2 u t 8 ",
"* 8 X ; * % d 0 * d 8 - c d 8 - 8 9 j . 0 d r - * - r X r 8 h ' r 4 V 0 . 9 e 8 e e 0 ; X * X $ $ $ ",
"i W c E z O n.F i ) #.*.c 2 ~ P #.c.k.  g.x.h.Y #.2.~ * g.%.-.v n ` M.o.t K K x g.y.;.g.l Z a p p a ",
"a h u h x u 6 x z l a a 2 m f Z v g.n ..s.n t K v P a Y a a i i p ) w.g h x c n <.M v w n #.f 8 8 p ",
"9 9 9 p f 2 b d 9 a z *.j c c t a @.O  .s.<.#.m ~ v e  .m 9 x r 9 & i * 0 Y #.K v u z z t p x t p 9 ",
"a p 9 7 K W i d p a 9 ' V V d t f n 8 b ' %.2.) c L S Y n i a e v a v 8 a 9 x a M S d d f z * a e u ",
"d a p i S W 3 d 7 2 p a 9 j z z z x 8 b R l a a z f x f x t 8 p / x h 0 c i n x K P t 9 t K i d a x ",
"# 3 . O O % @ O O p + @ %     8 9 a 2 # 9 # 2 r r 9 e a * .   0 , . r   9 8   # f d i O # c r 8 . . ",
"S >.q.W @.n Z  .q.< i.V j Z Z Z * 0 n %.@.*.@.n 4 v b 4 Y c W t  .V   p.' 5 e.;.^  .g ' n @.E b x p.",
"2.^ g <.Y v x n Z )  .u 0 f n *.<.r u x ' 9.@.m v S E 8 v i v x f n 8 c #.K ;.Y Y L 8 <.[ #.Z x c *.",
"f x 5 Y P Y t Z C Z f p z f p w ..d 8 u t c x P / Z E O z a d u f P d i ^ a #.c Z S   Z @.P c t h L ",
"z v p 9 f u c t f p p f t p f 9 @.d e x f f f w 9 u b   u ) a u u Y d 8 f x *.x Z K   v n n v i 4 m ",
"f z i p 9 9 d t f f z p f f z 9 a 8 a a 9 x p i z f 9 $ r E f x p v r u c a v x p c 0 x z a t p f 9 ",
"t 2 8 2   * 2 2 i p p p 9 t - * u   8 $ @ 2 9 7 * d * 8   > O 4 r 8 . 0 9 0 2 t   3   +   3 2 p @ 9 ",
"d c 2 a j d u N f 9 $ @ r r 8 9 8 n 2 r d d 9 r b r c O u.4.4.B + % b f v   v d X...e.5.>.{ f $ d r ",
"f Z a n g P 2.W v z   g E 9 a x i Y E 0 c x a 9 c #.*.d h.d.;.Z z ) v n g c #.M d.1.g.i.&.' #.7 v c ",
"d u p z t Z 2.x a p @ 8 z p p t t d ) 2 x t t 7 t x x 8 c R 1 # z f w p 2 u z u K n L a 3 R c * x i ",
"f z p p / t f #.t 9 X 7 u z 8 9 8 u e 8 x f a e x a r 7 p d u - p 9 a 9 @ 8 a 9 t f f a a f a 8 c t ",
"9 z a z 9 Z n <.U v 8 8 f f - u t u p 0 a a e e t p f 7 c 9 u 9 * p p q 9 9 z 7 i x r 9 t u u 7 x z ",
"9 % 8 a v Z Y v v l   7 w 9 t r p &   $ t a t a 7 . 7 X p 7 2 @ t 9 p q 8 7 w 7 r 9 t t 0 2 u X t i ",
"d 2 V v n d p 5 x  .} q N d t d d c B 8 j 8 $ $ ; r r $ d * u j 0 s r r % s q * * s r r * - 0 r u p ",
"/ 9 g.<.L s.H 7.2.j.j.[ g.8.n n h 1.g.n ;.a Z c t 9.Y p ) a m ) r S U P p U n z r b n v a c v v d F ",
"u u ' ' 1 8.G w.L n R *.#.z a 9 2 a M t 2 i n d f Z t p 9 f t K d U t p a z p u r 2 l p * i a     p ",
"f f c ) a R d Y K ~ #.f f d u $ i h f f t d .   c x 9 t 7 p f @.r c d f / f p 2 7 r r p 2 f z e   r ",
"f p p / p z - x f ~ ^ 9 i f p 9 u 9 r t * - p r 7 9 u u 9 7 a p @ a z t p f p q t * f f * 9 a v d d ",
"f 9 t t 7 c - a z a Y t i d x r 9 9 8 * - % p -   8 p f p 9 * u 8 d 2 9 7 u p t 7 * p t 9 8 9 M j @ ",
"7 7 8 8 8 * $ - 7 ; 7 t 9 9 9 8 * - * * * % o   = q 9 9 p 7 7 7 $ * = = .   s 7 . ; 7 % - 8 $ 8 * 8 ",
"S x E b Y d x 9 P K ~ * 8 p 9 f p / f * e x -.n Y 9.q.  0 a #.n v m t.B @.j u.Z e Y n z U n i 9 b *.",
"t p a 8 2 U n 2 t a p   $ u 8 x t p u - r a e e a x K 8 $ f x r d a 9    .>., f a d z 9 * 9 u t 8 f ",
"9 Z S t r * z a 9 f a X * u a a p i p 8 u x a p a c v e - p i 8 d a * $ 3 O d x z z z p 9 7 d 9 u i ",
"u M c x v 8 x 9 8 a 8   9 8 a p 8 8 8 e $ a u a z a * r 8 8 t f a p 8 u x q t 9 z a f f t 2 d u = * ",
"v *.v v E 9 f a 9 f a   $ - * % $ $ p e u x p p x x 9 a 8 f x 8 u a t p p - r u a z x x d 2 d u 0 p ",
"t , a i   $ * .   * 9       @ * $ . u @ O * @ 8 9 4 8 *   4 2 % .   9         2 9 4 * + @ $ $ O u < ",
"9.q.< F e.v d n Y e v d c #.d   e v e n &.e n b 9 U $ Y n V E g 9 i f f , 7.9.i 9 V O. .Z 9 r E O i.",
"5.z.: S 0.R 8 d x f f d u n f * r x 8 v m < t.7.  v * c f p z = z 9 f d i n E 2.v e.<.c x z p f * U ",
"j.m. .) W c $ p 9 u 9 8 9 z a r e e - x i a i @ * p * 9 a * a * v u 9 p a f a v Z v m K e x P f   K ",
" .) c.Z v 3.q u r 9 r % t 9 z 9 e d 8 a a a h 8 9 e a 8 9 $ p - p t t 9 t z f f z d a i i e L g.{ x ",
"v Q S #.W <.0 0 v d z 8 a * x p e a e f d a 8 X 9 0 p 9 * * p 8 8 d d i d a f K Y 8 z S ~ i t *.Q K ",
"z L a M l M d f v   O +   = p 8 e t O & + e     * @ e %   9 u   O u * 2 O 9 t p r     O 3 i 9 t * d ",
"Z P Y a.j.j.B V ,.Q X.H ..O t -   F 7.b F p n a r 9 # c E b 2 b r g O g 5.O b u   r n ..>.m E b . b ",
"v *.@.j.x.v.} f 8.r.0.#.5.> p Z g K y.*.m K F c f M B r ' m a m O.&.+ m >.+ P 9 h Y Y  .;.R W P e n ",
"i z p @.< ^ g 5 v n v *.M p a d e e y h t f 2 p a <.E   p 9 x O V U e p   - a t F @.t i 5 p 9 v b   ",
"x u 9 [ <.W u u ~ n n *.u z p n g a a i h p f 8 u f * 8 a e i q x e u e 8 - t 9 j Y t f x e i i * a ",
"a Z Z p K ) r e F ' c m u e e c c 9 t a a e a p i a   8 9 a 9 p c * $ * a u .   e p - e a u u 9 p d ",
"a v v x t R d Y ~ ;.x ^ 9 $ i c r r a x a f 9 p f x 8 8 a t p * e 2 F a p @ 8 8 8 e u * 9 8 2 9 a z "
};
