/* XPM */
static char *fa5ce8f0e4164e9c85918278044571eeFN2BRPvB3g19mI58[] = {
/* columns rows colors chars-per-pixel */
"50 50 164 2 ",
"   c #7A3908",
".  c #7F450C",
"X  c #955E00",
"o  c #854D11",
"O  c #865114",
"+  c #8C5414",
"@  c #8E5A16",
"#  c #8F5718",
"$  c #8C5D19",
"%  c #915513",
"&  c #945C16",
"*  c #985E15",
"=  c #90571E",
"-  c #945D19",
";  c #966500",
":  c #996402",
">  c #9C6B01",
",  c #9A640B",
"<  c #9D6B0C",
"1  c #9C7000",
"2  c #8D621B",
"3  c #966117",
"4  c #9A6316",
"5  c #9D6A15",
"6  c #95631A",
"7  c #9B6519",
"8  c #956B1E",
"9  c #9E6A1A",
"0  c #9E711D",
"q  c #9F781A",
"w  c #A17600",
"e  c #A37A00",
"r  c #A06B16",
"t  c #A16D1B",
"y  c #A47414",
"u  c #A67814",
"i  c #A97D14",
"p  c #A5731C",
"a  c #A8771D",
"s  c #A6791D",
"d  c #AA7A1E",
"f  c #975B27",
"g  c #9C5F21",
"h  c #995F29",
"j  c #986120",
"k  c #956D21",
"l  c #9A6F21",
"z  c #9A7322",
"x  c #9E7A24",
"c  c #9E6432",
"v  c #A46D21",
"b  c #A26F2C",
"n  c #A37520",
"m  c #A97422",
"M  c #A67B23",
"N  c #AC7D21",
"B  c #AA762E",
"V  c #A97B2C",
"C  c #A06634",
"Z  c #A56C32",
"A  c #A97434",
"S  c #B17E32",
"D  c #B47451",
"F  c #B77B52",
"G  c #B87952",
"H  c #AC8416",
"J  c #AE821C",
"K  c #AF8A18",
"L  c #B08A17",
"P  c #B1861B",
"I  c #B48B1D",
"U  c #A38126",
"Y  c #AE8222",
"T  c #AE8B26",
"R  c #A48428",
"E  c #A88428",
"W  c #A7882A",
"Q  c #AD8B2A",
"!  c #B18423",
"~  c #B58B25",
"^  c #B88E26",
"/  c #B5852A",
"(  c #B48D29",
")  c #B98E2A",
"_  c #B69326",
"`  c #BA9126",
"'  c #B5932C",
"]  c #BA942A",
"[  c #B7992E",
"{  c #BD992C",
"}  c #BE9A2D",
"|  c #BF9E2F",
" . c #B68634",
".. c #B58C36",
"X. c #BA8B33",
"o. c #BE8B3D",
"O. c #B79830",
"+. c #BB9C30",
"@. c #BB903A",
"#. c #C29E2D",
"$. c #C19E2E",
"%. c #C38E32",
"&. c #C49D30",
"*. c #C49A3E",
"=. c #C3A12F",
"-. c #C3A42D",
";. c #C4A52C",
":. c #C2A130",
">. c #C3A432",
",. c #C6A631",
"<. c #C8A732",
"1. c #C7A931",
"2. c #C6A834",
"3. c #CAAC33",
"4. c #CAAB34",
"5. c #C9AE36",
"6. c #CCAF36",
"7. c #C3A138",
"8. c #C9A03E",
"9. c #C7A83A",
"0. c #CDAD3C",
"q. c #CDB137",
"w. c #CEB336",
"e. c #CFB635",
"r. c #D0B538",
"t. c #D1B638",
"y. c #BB8A41",
"u. c #BD834A",
"i. c #BE8948",
"p. c #C0844D",
"a. c #C2894C",
"s. c #C29445",
"d. c #C79B47",
"f. c #C58D55",
"g. c #C3865C",
"h. c #C98D5C",
"j. c #C49153",
"k. c #CD9B53",
"l. c #C69258",
"z. c #CE915E",
"x. c #D09552",
"c. c #DC9B52",
"v. c #CCA443",
"b. c #CDA546",
"n. c #D6A746",
"m. c #D2A24F",
"M. c #D3AD4A",
"N. c #D7A94C",
"B. c #D5AF4D",
"V. c #D9A354",
"C. c #DCA854",
"Z. c #D9A75C",
"A. c #DAAB58",
"S. c #DDAC5C",
"D. c #E2B25E",
"F. c #CF9160",
"G. c #D29661",
"H. c #DDA665",
"J. c #E2AB66",
"K. c #E4B165",
"L. c #EEBB6C",
"P. c #E4A871",
"I. c #EFB477",
"U. c #F7BC7D",
/* pixels */
"U.A.Z.0.w.4.4.r.4.] $.L G.L.c.N.-.3.3.w.w.,.$.-.S I.C.V.6.1.=.4.r.5.{ 4.L G.L.A.n.e.5.6.r.r.<.-.$.a ",
"M.1 > r p r t r t t t 5 o.^ > r t t a a t p r t B v.e < p p p d p p d d r y.~ w y 4 9 r p a 7 4 p 4 ",
"{ p 9 9 p * t t * % p p Y Y t & t 9 4 p p & 4 m 9 ' m t 9 t 4 r p 9 & 9 d s ! v 6 r 7 4 r t * 9 ! & ",
"] a N N d a m t 7 d a p M ! M d d p t a & p a a 9 ( d Y m p r p t 3 a a p M ! d a d 9 t p 6 9 t N * ",
"$.t a d d d p p d d t p E ` t p ~ d p d d a 7 P p ] m a p d N d 9 d p p p N ` p p a a a a N d * d - ",
") t r 7 a 7 7 p 4 7 d a a Y t 9 p a p d p 4 p ! 6 ) r r p a 7 7 t 9 4 d 9 M ! 7 t a d 7 p a 7 t Y & ",
"] a p 9 p p p p d 7 d N Y ~ a 4 p a p t a 9 t ! n ' d a p 7 a t t a 9 a N M ~ a t t t p r p m 7 ! 3 ",
"3.a p r p p t a d p N M ! ] t 9 t t t r a N M d n $.! a r p t p 9 N a d a ( { p t t p a t t ! a ~ 9 ",
"] t p 4 t 9 p 9 t 7 N d Q d 4 p 9 4 t t a a m P M [ 9 p 4 t p t 4 p 7 a d ( N 4 a p p 9 d t t 4 P 4 ",
"{ t a p 3 9 t p a 9 Y Y 0 N 7 Y 7 4 p 9 p a t ^ m ! a a a 6 p p t a p N Y n Y 9 r 3 9 p 9 9 m r ~ 9 ",
"$.Y ~ ~ ] ! ! ~ ! ~ ! ! Y ~ m ! ^ ^ Y ~ ! a / :.Y ' P N ^ ~ ! ! ~ d ! ) N E ] d ! ^ ` d ~ ~ P ! $.k ",
"Y t a a a a ; y y M ~ 3 8 d a n a N 5 > s p v v O s p a a a p ; y y p ! & 6 d p p a d 5 > a a E d   ",
"' [ W E E 4 D f.u...[ { ' ' ' M M s c h.f.o.' ' [ ' O.Q x E 5 G l.f. .' ' +.+.' R R s C g.a.i.( ~ ] ",
"] { ~ ! ` 9 H.8.%.] ( ] ( ( $.] ( H u.D.] %.' ) ] { $.] ~ { p H.*.X.&.( ) ( _ { ] ( H u.D.] X.^ ! ] ",
"7 t * 4 a p | y 5 9 4 * r r p & t s M ~ : 5 * & r t t r 6 a t ' i 5 7 & 7 r r m & r s M $., 5 4 * 7 ",
"p 7 4 9 d 3 Y N 7 7 d 7 7 p 4 & p M 0 ! m p p 9 * t 6 & 9 a 9 ( N t * a 9 t p % * p p M ) r 9 7 9 9 ",
"a 7 t 9 d p ! ! d ! Y m N t p t 9 d s ! N N ! ! d p 7 p r a a ( N t ! ~ a m p 9 a r N n ~ p d p d d ",
"4 d t t d 8 _ d p d p t 9 p d t t a z _ p p p d p t t t p m 7 Q N r r m a 5 t t 7 p a l ~ 5 p a p t ",
"5 a 9 7 ! t N Y t 4 a a p p a 3 a N t Y a r 7 d r 4 t 9 p d 9 Q N t * a a t t p * d N 9 Y t 7 4 t p ",
"t p d p ! m ( Y p t r d p 7 a a d ! M { d a t t p t a N t ! a E N p a N p a t N a p E M { d p t r t ",
"7 d a r N m ] Y p t t r 9 p a t d d E ] 7 t t p t t p d d ~ p _ a r t p t t t p t a d M ] p a 9 t t ",
"t t p 7 N t n 9 9 p 7 9 p t t 4 a ~ 9 N 4 9 9 4 7 9 t 9 9 d a E t t t - 7 5 4 t 9 9 ! M Y 9 p 4 7 r ",
"N Y N t ~ N N N a N d d d N t M N ` a ! d d d p d d N m a ) a N P d d p m d N N N m ` M ~ d d m m a ",
"P I P ~ ) 9 ' P d ~ ` ! d P P ~ ] ! z ` p ~ ^ ~ ! P I I ~ ) 6 _ ~ d ! ^ ~ d I K J ) Y 0 $.d P ~ ] ~ ",
"f Z A V M 6 M l k 6 9 8 = c Z B E 9 6 N p 8 8 p & h Z Z M n 6 k 9 z k z 7 # Z A b M 9 6 n n 8 l q & ",
"I.k.k.9.;.$.2.5.2.' ' K z.J.k.d.:.&.-.4.2.] [ _ V P.m.k.7.:.:.2.5.| ] 1.J h.J.x.d.| =.=.2.:._ :.] 9 ",
"B.e y p t t N ! p r N 5 s.{ > H t t a a p p 7 a B b.w i a 7 t N ! p p Y p o.&.> < r 9 d m p a a Y 7 ",
";.m 9 4 t 9 p r % & p t T ~ t v p 7 7 5 7 + 7 N 9 _ v 9 7 9 9 r a r % 9 p T Y p 6 t 9 7 t t & * N 3 ",
"$.a d Y N r p t 7 a a p M ! p d d a p a 4 p a N 9 ! a 5 d ! t p 7 4 p d d m d d N d d t p * 9 p d 3 ",
"{ d ~ d t d a m a a p p ( ` p a p d a d a Y 9 t 0 ] d p a a ! p 9 a 9 9 d E ~ p / d Y d t 9 a 9 Y 9 ",
"^ p p 7 t a t p 5 4 Y p M Y p t 9 a 7 p a 9 7 d 9 ( p 9 4 a p 7 p p 4 N p n ! p 7 p t 7 a a * 9 ! * ",
"$.t t 4 9 N t t p 3 ! M Y ! 9 9 a a a N p 7 9 Y n ] d 9 p m m r d p 3 Y s M ~ d t r p t 7 d 3 9 ~ 7 ",
"4.p d 7 t s p a d r N d E ] a p p s a t p p p N p &.Y d d a p a p d a ! p Q ` p t 9 9 p 9 p a p ~ 6 ",
"] 4 p t p 4 t N p 7 a d ! d r t 7 t t t p r r ! n ] p a 9 t t t t 9 t J m ( N * t d r p p t 7 r Y 7 ",
"! t a p 7 t p p N t N ~ 0 m t m 9 7 p t p a t ! 7 ~ 0 p a 4 7 9 t p 9 Y ! p N 9 d 7 5 p 9 a p t ~ 7 ",
"<.J d ^ ` ~ d ~ d N ` ( U ` a Y ` ~ N ! ~ N Y { n | ! ! ~ ^ ! T ~ Y N ) ] E _ d ! ~ ~ / ) ! N ! &.0 ",
"( t p p d a ; y p p N & 3 d t t p s 5 ; s y m N O s p a a m p ; u y p Y @ 6 m p 0 J m 5 > s 5 p m . ",
"' ' E E E p G f.u.@.( ] [ [ ' R M s c h.u.i.Q ' _ Q [ Q U Y p F l.u. .] _ ] | ' x M s b h.j.u._ ] ( ",
"{ [ ~ ] Y p H.8.X.' ~ ( ` ] $.] ! H a.S./ X.] ~ ] $.{ ] _ J m H.d./ ] $._ ] ] ] ~ _ H p.K.)  ._ E ` ",
"t p 7 % p 7 _ y , 7 & r 7 4 a 5 4 a M ~ X 3 4 4 9 7 r * % p t ( y , 4 7 * p a r 9 t a V ] > 4 7 * p ",
"p 9 % 7 a 6 Y m p 7 a 9 9 9 * 3 a a 8 ! m 0 a 9 7 t * * 9 a 7 E N 9 3 d 9 p p - 9 p M p T p t m p 9 ",
"p p a p a p ~ N d ! m d d a a a 9 a p ~ Y ! d p p p p p t a a ! ! N a ~ a a d t N p a M ~ p d Y a a ",
"3 d a a a 6 _ Y a d d r 9 a a 9 p p p ~ 5 r p m 9 7 a 9 9 N 7 ( N a a d p 7 a Y a a t 9 ` p Y d d a ",
"7 9 9 a Y p M d t 9 d t 4 a 7 * N Y p ! 9 p p p p a 9 9 a ! 9 E m r 9 t d 9 a 9 & p N n Y t p p d p ",
"t t Y a ! a ( ! a 7 a t t p Y p 7 N m { J d p 9 t t p Y r ! p +.~ p p r p a r m t a Y M | r t t t a ",
"t t p t N 0 | ! r t t p p 9 p N a d U ] a t t a t t d p p ! p ] Y 7 7 N t p t t p t d E { r 9 p a p ",
"4 7 r & N a Y t 7 p 6 9 p 7 p r p Y 9 N 7 r 4 9 9 a t 7 8 ! p N t 7 r 7 7 5 9 N r 9 P p E 4 p 4 3 t ",
"d N N p ! a Y ! p p a a d a m p N ~ n ( t t s a p m d d a ~ N Y N t ! a d a Y a a m ] a ~ p a m a d ",
"! ^ ! ~ %.- ' ~ Y ~ ] ~ ! ] ~ Y ^ ! 8 ] d ! ^ ` ! ~ ^ Y ) $.p Q ~ ! ^ ^ ~ ! ^ ! ! / / 0 { Y ! ` ^ d ",
"+ 6 @ 7 6 + 4 * - 6 - - + + 4 & 6 * + 3 4 2 @ 3 + o 4 & g 9 o $ 4 $ $ - * o & 6 6 6 = & 9 3 2 @ 3 @ "
};
