/* XPM */
static char *dd1725d4acb04592d78a1258af8edbf8OrCXlsotxKvC2AqX[] = {
/* columns rows colors chars-per-pixel */
"50 50 42 1 ",
"  c #201F27",
". c #26232D",
"X c #28242E",
"o c #272730",
"O c #292732",
"+ c #2D2A36",
"@ c #2F2C39",
"# c #302B37",
"$ c #312E3B",
"% c #322E3C",
"& c #342E3C",
"* c #352F3E",
"= c #31303C",
"- c #33303D",
"; c #32313E",
": c #36303E",
"> c #34323F",
", c #343140",
"< c #353140",
"1 c #373141",
"2 c #373342",
"3 c #363343",
"4 c #373543",
"5 c #373544",
"6 c #393342",
"7 c #393543",
"8 c #383444",
"9 c #3A3445",
"0 c #3B3445",
"q c #3B3747",
"w c #3C3645",
"e c #3C3546",
"r c #3C3847",
"t c #3B3748",
"y c #3D3748",
"u c #3B3848",
"i c #3F384A",
"p c #3F3A4D",
"a c #3F3B4D",
"s c #40384A",
"d c #403A4C",
"f c #413A4D",
/* pixels */
"%%%282%++*%*$**%%@%%o@,@,@%82*@@O+2-6%$%-,,5+.$*-%",
"628yt882658878w8w822+,-,-,%@@%*%@$8822222-28$@8882",
"6278w88$2588888y2222@-2--2%%%-,2@%82%%,%%%@2*$2266",
"6844888$6yw8w8888282+--245584-$2+%t2,2%42268$$8622",
"26788t8-4yi5i8588625@%2226822,%2O%t822*222*8%$2*-2",
"226*688+>8464888262y@%-222>22225@$t22%262268$%2>>2",
"886245w+-u88888826y8+%558yyy6622+$pt622862282*6686",
"*>*>>>*.%84877-22288.@2-2w8,***,+@2%%,*%$%%*++*%%2",
"%@+2222-2>7652o+>*>2>**4*2%O*2668*%2262O+%-***262,",
"4>-ipii548iws8@-w884688w68-%8ww88i88y27@%622686828",
"424ipps8rsi4ys%,888u8888682+t8y85885y47$%5->258625",
"82-yiiwfr88855%2888i884862%+8ysyt88yp84@%8,2285622",
"y2%yww88778s88$288882888866+88y88ty8y88$$2%>,66288",
"5-*88y888888i8$2888755i586-@8y8tw8ww888$@2>2282288",
"t2@2ws8yffw84y%-88888w8228-O888ytw88y88%%2*>822256",
"8-@268wywr674y@+2>226882222o2288wy86666@+*>>252428",
"%%@%$$+O@@++@%oO#++++++@@$++%**+++%%@%%@@***++%,2@",
"88226**O@2**222%$$%@O6268622*6>$O+8668888668++2%$2",
"882262>O$2286222--6%+68882222*2*+$t826266628$$2%22",
"6622%%@.@22622*%-%2,O285862%%22%+$8822622268*+2*%,",
"t82262%+22228w82,-*+.824886-2*>*@$5826622%,6$O*622",
"8t,2622@22,288862,*$.822822*2%%*O@8622222266%@6,28",
"882%222+*2*6*w82,-4$.22625826>*>++5862226228$+,,8y",
"f8282>*O%6887886526+.$>6222>2226+@52**2-$282$@*686",
"6*22%%%.+%%2%@**$+$+.o@%@+@@@@-@o+%@-22@,22%+O%$$%",
",.@222*%%7822@+>%$$2$$%%@%O+-@@@@%%,@@+O,%22%%22>2",
"*O5682668w8882>w888w888822@%2,,,%%@%%%@+8582262*>2",
"-%5222628w888**8678w888822%@2,-,%%%%2,%@82%%2%%$$%",
"*@622222858t5%-i7w8w558264@@-2268w82%2@@y522-*2262",
"2+2222228888u%%fy8w8886828-@222282*2-6@@t822*>6222",
"*$2**,2222*8t%@8888w882222%@%7222*2222%+522%2222*6",
"6$66866862258%@y5y888567yt@@5888tt8222@+yt88266>26",
"++*%%6--2%,,4.+54442>22275+O22$6y2%*2-$+6*$>>**$%2",
">*222*%@+-222%*--442@X*2-2>%*22-%O*222>**$782++-,$",
"26625852-tfipi8wrirq$@488878ww782%28i88iwtt88>+7**",
"276625282tppi8wiiw8i2-88t888w8882@2yiw8885t86%@222",
"28888488%wifuirw58i4%>888y888586*O%tyyu88tyy5%@82>",
"266265t8@www88675iq4*>85885588866@28y888i88w8>+6%%",
"22226882>88r8888888t-%888442y8582+8y88888w888%@6>2",
"22225288@68ii5ify8t82%68y86wt5472O288itwywttw2@2*>",
"28854584+2288wyy8878%+*22-265222,+$6688t86226$+**>",
"%o%--%%%@%%@@O+%@++%+O@++@o++@$$$++**@@O%%$$$$+%>%",
"%o%,%2782222*O@%*->62>$%%%+%8686*6,62$@o8888667882",
",@2-228w22222+@,286222%-,2+28686226,,,$O8822266622",
"2@*-%-28222@$.@22626>*,%2,o%588422$22*++8622866226",
"*o%6228822262+%8628864->%%.,52882*2*>*$+8262862%22",
"%+22678842222@>6-66862,,*%.%22522*,*%*++8826222*22",
"2+*,>f852%222+%6*228y2,22-.%82828,22>>$O8866*22282",
"*O*228i82222-++6682488862$ @2224622224$o442-2-%,52",
"%O%%%%-4222%2O.*2%,$-**@@% X+*++@+@+@%XO%$%%2%%222"
};
