/* XPM */
static char *edf45a9dc2f9414fbb170c8fc722aee8xNrW5ArxcKldgDBp[] = {
/* columns rows colors chars-per-pixel */
"50 50 48 1 ",
"  c #000101",
". c #010503",
"X c #020705",
"o c #030A07",
"O c #030B08",
"+ c #030B09",
"@ c #040B09",
"# c #040C0A",
"$ c #050E0B",
"% c #060E0C",
"& c #060F0C",
"* c #070F0D",
"= c #06100C",
"- c #07110E",
"; c #08110D",
": c #08130F",
"> c #09130F",
", c #091310",
"< c #0A1411",
"1 c #0A1611",
"2 c #0B1714",
"3 c #0B1813",
"4 c #0B1914",
"5 c #0C1914",
"6 c #0C1A15",
"7 c #0C1A16",
"8 c #0C1B16",
"9 c #0D1B17",
"0 c #0D1C17",
"q c #0D1D18",
"w c #0E1E18",
"e c #0F1F19",
"r c #0F1F1A",
"t c #0F2019",
"y c #0F211B",
"u c #10211B",
"i c #10231C",
"p c #11241D",
"a c #11251F",
"s c #12241F",
"d c #12261F",
"f c #122620",
"g c #132620",
"h c #132821",
"j c #142A23",
"k c #152A23",
"l c #162C25",
"z c #172E26",
/* pixels */
"$$;@$11;$-;31;<<-4-9fyjytwi9*29wyywyw7< -$;1<-1; -",
"74037097<973<<<1<;<fffyfwaij797744w9779<1<<44;77<w",
"27074yw4<4727;<;-12wwwyw7wwit7722<7w77y<-1;<11<727",
"20772w94<77701;<--1wy9wwwiiw03777<<474y;-;;<-43117",
"1949<w4117472<<4<-<t44wyw9yw717741-14wy-<<<<;14144",
"299y79917y774;<<7<4tyywy997y70ww7447www-99272<030w",
"49w42ww93fyw41--<<;2w41<4994@1114-+***-X-;;1717$17",
";<1*+;-;-**-<-<4217w4-2w9w9<-29;<-+414<4<-4-;07;11",
"ww74<;77u003;47w0000030uyw74wif4-2-4w9<2;<21107147",
"9yw133au77a0<7<400070;009ww44ww7441<4<--;;<10u0777",
"479w77yw37a01i020u03a3uayyatu7i9w7w<4<<<41<<0u0777",
"4wt777iw37au1w01007eu3eayffw77fiwww47w4w4<113aa0ww",
"wwwy44tw70pu;7ut0uu0a0ua7aai03twww22w4949<<-7aw077",
"wtyfw4af7aku177w0000e0ua0uaku343w1-<4<41<---3a0077",
"w<4w7$77>up><7i703uuu30aaaaau7t4www<424<<-<<-703<0",
"w24w<$7;$;;@;1-;331>3>03<310;;7<*w4<<<<--*$-$$$2w0",
"000p3uau9yw117;-au0u7003;3$=$;11;441@ *#--<<444<77",
"00u00adai974<<71a3aautu033;>37<31<27<*1911771*12w4",
"uttetaaau72w9w7wa0akkadu03;371177<7w4-7yww7ww<19tw",
"tttu0dautw7tw749daaadaa03><t13<10<<74-77iiw7t2<49y",
"tppa0aa099w7ww2wapaaaadt;-2w44<174144<74wit7w742yi",
"u0pduiauw97www14duaadda04<4iw424w34w4<wwwrww999<ii",
"7;;u3;i73$4t7w1-p>30003$<47y24<-7<<<-+44<<22<14<;7",
"aa;0777<1<;71<$;$$@;33e3947141*2149ww7y17wi<*4yfui",
"aa7kjat37712w7;<14;4w977<<<<11179tyywww2wyt3>00tra",
"kd;aaaut9w9<tw2;47<721774<9<-4$<4w<9w41wwwt03030ua",
"dd>aduapwyfyfi47w7<134w79-21-71<<1wt719t47003t7tua",
"kd3ukkaayyrwwf71<412w4494172;;37w99ww79twy0w1y0taa",
"la1idddpraa44w3<77<w44474<9417-1yy9wwy4tawty000aak",
"ga7idkjkffa7yt<<w4<tw<4w4<94<1$19yfaiy9wy27w0t0akd",
"77-wwatt424<ty**w7<-<$+-**<<-<;*<474<21<2-1--0u003",
"r77771;1www77144<49w1+$-<<w44yw1yw;<1444441w>>0uu0",
"r00rw<tfajja71ka10000o<427730tw1w7-79914ww774wfywy",
"7003719fatw;7<0t40007$1477;1374<47<142-<449717w77w",
"0uartwuu0000w4tt700u7;0wtt77w3<wy9*-411444wf77w4yy",
"077rt30u0t00ttff03uut>wtta0ut7w7ft+<2<<49wyf17y9wt",
"u077e<3a3-31<-40>;><=;ttwywuu7aaa0$;;;-0wiii31ww70",
"eu73<7<>-*1---4ta00;3u30w47;--1>;-1-11<-<<*1;$7;<7",
"adad3u0e0300w4yfaua7ua0aaaa1$$137000y9y<2wwyy4tfff",
"adad000043t030ay30a7upudjaa7;-7003009yf47afyfwyfff",
"aaja94yy017779ww73d0uaadauk31;>0w7177ua;wtftjyyfff",
"daaa44yy1-47779400u0upap0aa13;@3721777u1wfiaf424yf",
"adfa127y7<949749upa00kaaaaj033>07771<7k7wtfaa047wy",
"adfzyyfyw47ww97w0dd73aaaaaa370300uatuuk09wafaf77ww",
"0u7u414<<1*<<<<<;07$X&>;;3017030017ur0t<7;;300;><<",
"$11>224422<#<4447777>37uauaauaaa07t000u0a4;370;171",
"$ru77ww744w<4w9w7ee03uaddaaakaaa00faauupa717001<47",
";777w7w4409<497477707uldaakdaaaaaizadaaaap307037<4",
"17<07007737<00u0000u3akjfjjfjjjfiakkdkkdky0000330t",
"*737u0uuu73<00033<>3->00tayfttwiu3aaaaautt1037=;1>"
};
